<?xml version="1.0" encoding="utf-8"?>
<!-- Svg Vector Icons : http://www.onlinewebfonts.com/icon -->
<!DOCTYPE svg PUBLIC "-//W3C//DTD SVG 1.1//EN" "http://www.w3.org/Graphics/SVG/1.1/DTD/svg11.dtd">
<svg version="1.1" xmlns="http://www.w3.org/2000/svg" xmlns:xlink="http://www.w3.org/1999/xlink" x="0px" y="0px" viewBox="0 0 1000 1000" enable-background="new 0 0 1000 1000" xml:space="preserve">
<metadata> Svg Vector Icons : http://www.onlinewebfonts.com/icon </metadata>
<g><path d="M928.8,362.2c8.4,0,15.3,6.9,15.3,15.3v551.3c0,8.5-6.9,15.3-15.3,15.3H71.3c-8.4,0-15.3-6.9-15.3-15.3V377.5c0-8.5,6.9-15.3,15.3-15.3H118H133h36.9h660.3h36.9H882H928.8 M500,10c-25.4,0-45.9,20.6-45.9,45.9c0,5.1,1,9.9,2.5,14.4L118,316.3H71.3c-33.8,0-61.3,27.4-61.3,61.3v551.3c0,33.8,27.4,61.3,61.3,61.3h857.5c33.8,0,61.3-27.4,61.3-61.3V377.5c0-33.8-27.4-61.3-61.3-61.3H882L543.4,70.3c1.5-4.5,2.5-9.3,2.5-14.4C545.9,30.6,525.4,10,500,10L500,10z M500,101.9c9.2,0,17.6-2.8,24.8-7.4l305.3,221.7H169.9L475.2,94.5C482.4,99.1,490.8,101.9,500,101.9L500,101.9z"/><path d="M913.4,882.8c0,16.9-13.7,30.6-30.6,30.6H117.2c-16.9,0-30.6-13.7-30.6-30.6V423.4c0-16.9,13.7-30.6,30.6-30.6h765.6c16.9,0,30.6,13.7,30.6,30.6V882.8z"/></g>
</svg>