<?xml version="1.0" encoding="iso-8859-1"?>
<!-- Generator: Adobe Illustrator 16.0.0, SVG Export Plug-In . SVG Version: 6.00 Build 0)  -->
<!DOCTYPE svg PUBLIC "-//W3C//DTD SVG 1.1//EN" "http://www.w3.org/Graphics/SVG/1.1/DTD/svg11.dtd">
<svg version="1.1" id="Capa_1" xmlns="http://www.w3.org/2000/svg" xmlns:xlink="http://www.w3.org/1999/xlink" x="0px" y="0px"
	 width="387.334px" height="387.334px" viewBox="0 0 387.334 387.334" style="enable-background:new 0 0 387.334 387.334;"
	 xml:space="preserve">
<g>
	<path d="M173.546,8.15c-0.612-4.284-3.06-7.956-7.956-7.956C114.793-1.03,64.61,3.866,13.813,5.702
		c-4.284,0-7.956,3.672-7.956,7.956c0,46.512-6.12,94.248-1.836,140.76c0.612,4.284,3.672,6.12,6.732,6.12
		c-0.612,1.224-1.224,1.836-1.836,3.06c-1.836,6.732,6.732,12.24,11.628,6.732c5.508-6.732,53.244-0.612,64.872,0
		c25.704,1.224,52.632,4.896,78.336,1.836c4.896-0.612,7.956-3.06,7.956-7.956C173.546,112.19,180.278,60.17,173.546,8.15z"/>
	<path d="M174.77,221.126c-0.612-3.672-4.284-5.508-7.956-6.12c-51.408-3.06-102.204,0-153.612,1.836
		c-4.284,0-7.956,3.673-7.956,7.956c0,50.797-1.836,100.98,0,151.776c0,3.672,3.06,5.508,6.12,6.12
		c1.224,1.224,3.06,2.448,6.12,2.448c50.796-1.225,101.592,6.731,152.388-1.836c3.672-0.612,6.12-4.284,6.12-7.956
		C175.994,323.33,186.397,271.922,174.77,221.126z"/>
	<path d="M384.074,11.822c0-4.284-3.672-7.956-7.957-7.956C324.71,2.03,273.914,2.03,222.505,5.702
		c-4.283,0-7.955,3.672-7.955,7.956c-0.613,28.764-3.672,58.14-4.896,86.904c-0.611,18.36-3.672,45.288,5.508,63.648
		c-4.283,4.896-2.447,13.464,5.508,13.464c51.408-3.06,102.205-1.836,153.611-1.836c4.285,0,7.957-3.672,7.957-7.956
		C384.074,115.862,385.91,63.842,384.074,11.822z"/>
	<path d="M384.074,213.782c0-4.284-3.672-8.568-7.957-7.956c-33.658,4.284-67.932,1.224-101.592,3.672
		c-20.195,1.225-52.631,3.672-62.424,25.092c-11.016,23.868-7.955,57.528-7.344,83.232c0,15.912-1.836,48.96,11.016,61.2
		c1.225,1.224,3.061,1.836,4.285,1.836c12.24,8.567,28.152,4.284,42.227,1.836c36.721-6.732,72.217-2.448,109.549-1.836
		c4.283,0,7.957-3.672,7.957-7.956C381.013,320.271,385.91,267.026,384.074,213.782z"/>
</g>
<g>
</g>
<g>
</g>
<g>
</g>
<g>
</g>
<g>
</g>
<g>
</g>
<g>
</g>
<g>
</g>
<g>
</g>
<g>
</g>
<g>
</g>
<g>
</g>
<g>
</g>
<g>
</g>
<g>
</g>
</svg>
